PathFileType	4	(X/Y/Z)	T1_P1_NoVision_Movement_2_0-680.trc
DataRate	CameraRate	NumFrames	NumMarkers	Units	OrigDataRate	OrigDataStartFrame	OrigNumFrames
60	60	7	27	m	60	170	680
Frame#	Time	RHip			RKnee			RAnkle			RBigToe			RSmallToe			RHeel			LHip			LKnee			LAnkle			LBigToe			LSmallToe			LHeel			Neck			Head			Nose			RShoulder			RElbow			RWrist			RThumb			RIndex			RPinky			LShoulder			LElbow			LWrist			LThumb			LIndex			LPinky		
		X1	Y1	Z1	X2	Y2	Z2	X3	Y3	Z3	X4	Y4	Z4	X5	Y5	Z5	X6	Y6	Z6	X7	Y7	Z7	X8	Y8	Z8	X9	Y9	Z9	X10	Y10	Z10	X11	Y11	Z11	X12	Y12	Z12	X13	Y13	Z13	X14	Y14	Z14	X15	Y15	Z15	X16	Y16	Z16	X17	Y17	Z17	X18	Y18	Z18	X19	Y19	Z19	X20	Y20	Z20	X21	Y21	Z21	X22	Y22	Z22	X23	Y23	Z23	X24	Y24	Z24	X25	Y25	Z25	X26	Y26	Z26	X27	Y27	Z27
171	2.85	-82.94123535444463	3859.6401805771584	-581.2948091249006	262.53529218846523	3994.943590997927	-530.365054365249	624.8394184347475	4149.259402194182	-524.1878480880333	702.4199666781767	4095.468561063861	-478.55905633814007	706.2483532398165	4099.417148617645	-541.0583058786254	656.1993414739426	4194.678239013992	-532.4085554191017	-109.35373681401396	3928.6945872413667	-361.5485843462014	223.06937784739313	4010.0200077085997	-360.22708319401335	584.3122188321072	4198.338775854789	-382.2106340368155	685.8563400984594	4190.824692366067	-350.43983690300234	651.0046329691824	4254.180849189918	-340.17779818099103	612.5972994402221	4239.397864505598	-409.9892542567532	-671.76320040561	3698.3513063128285	-483.26432890807354	-907.4227913206372	3542.2312815107875	-431.8182125868929	-752.2541870907222	3579.546037397771	-417.1703476564409	-572.2114134943433	3656.000315786758	-610.6696976499059	-309.30310275514836	3568.320035092383	-633.6525603724281	-463.7312646587006	3415.7349506233945	-438.42179780222165	-564.0171579907275	3439.9129022768784	-413.2009643480014	-564.6805304120345	3417.3915913960464	-385.65778298517904	-536.467388952127	3399.054657620453	-375.92420709566903	-634.0842724691561	3852.870383736291	-386.90399710663644	-406.20696183594816	4002.9049933204037	-336.6988218250384	-146.50008603467305	3968.5487979776262	-231.0142370008009	-6.401764723339412	3999.033801569352	-239.06960607090735	12.568928446651721	3988.9070554422733	-222.27537072056464	1.0997615834026069	4008.1526306659484	-217.1364568528895
172	2.8666666666666667	-78.07355156054294	3862.445477867793	-581.0772861214058	262.5129738752346	3995.44890871223	-530.3864634319546	624.7413966401531	4148.94016891095	-524.0803580495522	690.4181903606049	4091.767998065382	-477.1817522596088	700.8799169715837	4099.986572689317	-541.7645839000188	656.1307358705855	4194.160128325696	-532.2261109449473	-109.38497424509069	3928.8358764288064	-361.55468969300256	223.0828454614831	4010.0739278852975	-360.2601021056046	584.4433793030535	4197.908056936825	-382.06724030289087	685.7470766442253	4190.432045001282	-350.24300828374555	646.3172764745457	4222.636721891388	-334.78342675829236	612.5536323279325	4238.7757489603955	-409.8012551543094	-671.7957794472452	3698.321927485907	-483.22675259059406	-907.4943426486483	3542.3357620976803	-431.85220750478226	-756.6062047660994	3577.0757169084804	-416.3169848953384	-572.1921400683524	3656.0322607297567	-610.625721958391	-309.27235295315626	3568.2573341890215	-633.570427398562	-463.2803416077653	3414.4856307681466	-443.0852654572394	-564.1325022501884	3440.632124108546	-414.0954203857482	-562.000094666988	3418.47314214652	-386.12994297855016	-536.4980953060189	3398.89817403393	-375.7869359238921	-634.0816070116224	3852.9790882000834	-386.9203269752426	-410.76919001305833	4002.065060512252	-336.73962139559217	-146.56419472123113	3968.50281991305	-230.9633440829532	-11.026267142471427	3995.28558038099	-237.4640145130199	12.409066665270952	3988.880518395004	-222.30803746637218	0.9779209655712706	4008.083918012391	-217.24483331126987
173	2.8833333333333333	-77.96113960130678	3862.236639380554	-581.0591020957127	262.6420464607836	3995.630394540724	-530.3788141728511	618.3143705152855	4144.931592978187	-524.387183848513	702.5818870383077	4095.4467122847664	-478.5102662631929	702.4874366586935	4068.6023107452784	-540.4258015366167	651.1658700563397	4162.2284480580065	-524.9467552360081	-109.25092579121579	3929.136221224518	-361.80160134202316	223.11450422343907	4009.87946572267	-360.1280955534357	577.7998077587993	4194.549803067085	-382.96525133131246	680.745814833437	4191.400658961471	-350.91526722934384	641.3751463238262	4198.79510466521	-319.8543893050398	610.5039665504773	4257.03364338281	-424.8192820757574	-671.8011113955449	3698.496830800949	-483.34701402741194	-907.3879127297104	3542.051835431049	-431.7154895127875	-756.5993949464001	3577.1316043321694	-416.4546787253166	-572.2088562122979	3656.1707647717853	-610.7211329474293	-309.3336433906019	3568.2771227062117	-633.5973272484727	-468.5345435358955	3414.785004007918	-438.41836592613794	-564.4746944205494	3440.0607585264397	-412.68148769896356	-565.2236899878213	3415.66513091076	-380.58629221548523	-536.707594570879	3398.8278472559487	-375.6125156272833	-634.1428332555856	3853.4797189679684	-387.17484719432497	-411.28230101754895	3999.4994902655058	-335.41018050963106	-146.01695011182466	3988.385563807412	-243.93427164318646	-6.258137271716119	3970.820305781552	-233.95688945226667	18.535368278204	3990.0097872727456	-221.2167944865239	-3.201372985123889	4004.8160581807606	-215.92703620401548
174	2.9	-78.00844570325837	3861.873522970962	-581.0010710485781	268.71128229422555	3998.053256780377	-529.68656969193	618.7383209815796	4146.644111850664	-524.7487153281141	696.0685772371735	4091.6720188572713	-476.68785523945536	706.2694250989658	4100.009355862348	-541.2343445197398	656.0229023805433	4195.558512341871	-532.5398123711713	-108.71130295719188	3931.298271217317	-368.37557496389513	228.7471042707163	4012.0772035200257	-359.2634329643363	577.4482033753642	4193.9809076841575	-382.77932771927397	668.2449687015504	4153.577328353589	-344.0277865321473	639.1442279702385	4217.609799780406	-332.70705245024914	604.2885035104057	4252.627104706788	-422.64080037130344	-671.7286102267022	3698.457511654974	-483.3398997936481	-912.4045505010329	3540.9677504863034	-432.0269868114943	-752.1930011247847	3579.7754729705657	-417.3114873904917	-572.1827151160184	3655.824626413748	-610.5114337236025	-309.26851495781546	3568.238426829353	-633.6717153256626	-473.2820301694651	3411.9585081452637	-437.3375707742023	-569.0499166929541	3451.7306953830644	-424.5977306957927	-565.1562189459228	3415.7677337615946	-380.9136227088101	-536.5713419422405	3398.8416213759233	-375.73496012278304	-634.1613590474778	3853.3714544962777	-387.15590074688583	-411.4409812554361	3999.358941493175	-335.4198474175639	-150.89551289130964	3984.803701674296	-242.51757527252587	-10.999492095109687	3966.865494257596	-232.2963196870105	8.03258644384133	3984.3544161901164	-220.54829356595565	-3.2962151304027296	4004.793412484104	-215.91498106928077
175	2.9166666666666665	-78.06234004681139	3862.801136905507	-581.2150108315323	268.4189606518488	3999.6135960609113	-532.4202696434661	624.854903704348	4149.12754975936	-524.0505488530106	702.6358492970169	4096.069158728794	-478.78577168807914	706.3579104933597	4099.898083723165	-541.1181002590594	656.0762357958969	4194.323633963498	-532.1537552095577	-109.3683119148804	3929.0542809157464	-361.7625946458717	223.105450163654	4009.7507452450936	-360.09990564167566	577.619199329288	4194.343512063448	-382.9211893861836	674.9936738527135	4188.3849997549405	-351.7617800720418	643.8042126608319	4249.3490491557795	-338.0839054789351	604.516331412764	4252.521798978855	-422.60899361367655	-671.8322100816838	3698.5080734160115	-483.3363333610482	-912.4086550642132	3540.943798987258	-432.0310094274958	-752.1793865361172	3579.654725829519	-417.25907936713423	-572.1990689090185	3656.0530410362776	-610.5328023436299	-309.34550656028387	3568.237250898985	-633.5459541950468	-473.1870222211588	3412.0277046362366	-437.3090637184236	-561.1907473248693	3440.9887702079873	-412.64682992221844	-555.9861271391355	3420.1370555610088	-385.43302839260747	-536.5145315078395	3398.6237532828623	-375.6233330579431	-634.0924687247083	3853.2873766113107	-387.07679429731513	-416.00747568795623	3998.2863700241264	-335.4261075045688	-150.83504242198572	3984.6883510017633	-242.55721510343895	-6.412396975362083	3998.5439277672353	-238.9695174209685	12.462731510310611	3988.5762941064913	-222.23461366227255	-3.310793768469354	4004.8850045650097	-215.93809486605954
176	2.933333333333333	-77.97811012037229	3862.5202848830145	-581.0479462475213	268.7829613054801	3998.3391056081873	-529.7416219645008	624.8433557146864	4149.2598903836915	-524.1282175279277	702.4543061888813	4096.073680372295	-479.03164619704626	711.6434668781907	4121.805509724604	-556.840606782934	656.1292482921986	4194.560963447917	-532.2932170654598	-109.35292376288396	3928.9537757604976	-361.686279432143	228.799210426631	4012.415703140475	-359.55243511531427	577.6339179168514	4194.317194691432	-382.9060418601691	675.6678418909394	4158.429703914949	-346.14595649751755	639.3763984473967	4217.605872263886	-332.74335064237414	604.6835579269018	4252.704798300577	-422.6338002787699	-671.925601110921	3698.5784960993424	-483.3843408334835	-912.3756293742503	3540.817908077641	-431.9489491943171	-752.3072233470849	3579.5192574204157	-417.18888166367833	-570.272461373204	3638.72268431214	-596.2901330210914	-309.38095535970507	3568.0883721932396	-633.4801375498267	-466.9295768647971	3438.581205152365	-443.51647180424044	-558.1394085567493	3443.453414978261	-413.6263763508528	-558.9688680337581	3419.925538375595	-385.6541353962047	-536.6479721667689	3398.9229890349743	-375.8491733425439	-634.1312355459602	3853.393800222823	-387.1059376787186	-411.4488006073433	3999.2160564387646	-335.26057793912196	-146.1081580821094	3988.179456864168	-243.8501595378755	-6.393704373076503	3998.264914407827	-238.81269078785454	12.654095991477355	3988.4505935232287	-222.1090990050475	-3.3759230380418823	4004.7703087605564	-215.86176073273612
177	2.95	-78.07368153788849	3862.362959269142	-581.0933799764957	274.736851321296	4002.437373192347	-531.8183762392357	624.873380405961	4149.478323519377	-524.0280977272741	696.0673752542779	4091.122269947316	-476.42831352302267	706.2521018796386	4099.516768443453	-541.0136744517994	656.0323004210867	4194.894738200413	-532.1625099252004	-109.34181328873139	3929.034915378264	-361.74470367042005	222.38078084957982	4009.322478155608	-354.5547674202842	584.2243067427536	4198.031827436994	-382.20918703177546	674.9357591309403	4188.4586111862145	-351.9022528946103	646.0769057762108	4222.635206827191	-334.8489735117338	610.4438829024407	4257.742017898247	-424.8769381164285	-671.863635342894	3698.6732593382394	-483.43092608543554	-907.3604871671405	3542.0111884211324	-431.66565944836026	-752.196951786726	3579.542812735094	-417.1625795912665	-572.1879668204851	3655.9726775151394	-610.5347556598739	-309.40020880374004	3568.2002255252282	-633.5538001112411	-470.8146888605627	3436.018290509788	-448.49486071910474	-557.8430867713033	3443.1634535790768	-414.38422259891655	-565.1757821615172	3418.017467534101	-386.57764931946764	-536.5502844449983	3398.786257804639	-375.8600561595004	-634.1040314237786	3853.369944945993	-387.1663746598517	-411.3553398170316	3999.303097016231	-335.3247855070214	-146.12481007293255	3988.1017880512145	-243.81709006299786	-6.376493421562694	3998.4713519798283	-238.83436327305287	12.83393671253863	3988.4952823299977	-221.98100480492232	-3.3053653981080373	4004.709480426893	-215.85285084977647
